<svg width="1481" height="1916" viewBox="0 0 1481 1916" fill="none" xmlns="http://www.w3.org/2000/svg">
<path d="M296.933 1916H1365.89C1428.99 1916 1477.24 1861.62 1477.24 1790.5V606.618H296.933V1916ZM694.08 1054.22H842.547V845.048C842.547 819.948 857.393 803.214 879.663 803.214C901.933 803.214 916.78 819.948 916.78 845.048V1054.22H1065.25C1087.52 1054.22 1102.36 1070.95 1102.36 1096.05C1102.36 1121.15 1087.52 1137.89 1065.25 1137.89H916.78V1681.73C916.78 1706.83 901.933 1723.56 879.663 1723.56C857.393 1723.56 842.547 1706.83 842.547 1681.73V1137.89H694.08C671.81 1137.89 656.964 1121.15 656.964 1096.05C656.964 1070.95 671.81 1054.22 694.08 1054.22Z" fill="#FFFDFD"/>
<path d="M0 464.382V1623.21C0 1769.63 96.5031 1890.95 222.7 1911.86V602.434C133.62 594.068 51.9632 539.683 0 464.382Z" fill="#FFFDFD"/>
<path d="M1365.89 0H259.816H233.834H226.411C222.699 0 215.276 0 211.564 4.18341C207.853 4.18341 204.141 4.18341 200.429 8.36681C196.718 8.36681 189.294 12.5502 185.583 12.5502C181.871 12.5502 178.159 16.7336 174.448 16.7336C170.736 16.7336 167.024 20.917 163.313 20.917C159.601 20.917 155.889 25.1004 152.178 25.1004C148.466 25.1004 144.754 29.2838 141.043 29.2838C137.331 29.2838 133.619 33.4673 129.908 33.4673C126.196 37.6507 122.485 37.6507 118.773 41.8341C115.061 46.0175 111.35 46.0175 111.35 50.2009C107.638 54.3843 103.926 54.3843 100.215 58.5677C96.5029 62.7511 92.7912 62.7511 92.7912 66.9345C89.0796 71.1179 85.3679 71.1179 81.6563 75.3013L66.8096 92.0349C63.098 96.2183 63.098 100.402 59.3863 100.402C55.6747 104.585 55.6747 108.769 51.963 112.952C48.2513 117.135 48.2513 121.319 44.5397 121.319C40.828 125.502 40.828 129.686 37.1164 133.869C33.4047 138.052 33.4047 142.236 33.4047 146.419C29.693 150.603 29.693 154.786 25.9814 158.969C25.9814 163.153 22.2697 167.336 22.2697 171.52C22.2697 175.703 18.5581 179.886 18.5581 184.07C18.5581 188.253 14.8464 192.437 14.8464 196.62C14.8464 200.804 11.1347 204.987 11.1347 209.17C11.1347 213.354 11.1347 217.537 7.42308 221.721C7.42308 225.904 3.71143 230.087 3.71143 238.454V251.004V263.555C18.5581 409.974 129.908 522.926 263.528 522.926H1480.95V125.502C1477.24 54.3843 1428.99 0 1365.89 0ZM1328.77 305.389H230.123C207.853 305.389 193.006 288.655 193.006 263.555C193.006 238.454 207.853 221.721 230.123 221.721H1328.77C1351.04 221.721 1365.89 238.454 1365.89 263.555C1365.89 288.655 1351.04 305.389 1328.77 305.389Z" fill="#FFFDFD"/>
</svg>
