<svg width="630" height="725" viewBox="0 0 630 725" fill="none" xmlns="http://www.w3.org/2000/svg">
<path d="M282.445 25.0267C305.23 12.5187 331.231 10.198 355.644 18.4881C395.863 32.1405 422.713 71.4476 422.47 116.3C422.452 120.056 425.294 123.117 428.826 123.136H428.861C432.375 123.136 435.235 120.119 435.253 116.376C435.539 65.542 405.107 20.9987 359.533 5.53098C331.866 -3.85943 302.405 -1.22886 276.582 12.9358C250.765 27.1067 231.685 51.1235 222.855 80.5584C214.025 109.993 216.499 141.327 229.823 168.777C230.959 171.117 233.195 172.457 235.508 172.457C236.495 172.457 237.499 172.211 238.439 171.699C241.572 169.979 242.803 165.875 241.186 162.536C229.431 138.317 227.243 110.664 235.032 84.6936C242.827 58.723 259.667 37.5271 282.445 25.0267Z" fill="white"/>
<path d="M569.093 54.9875C566.596 52.3316 562.553 52.3316 560.056 54.9875L552.231 63.3091C549.734 65.965 549.734 70.265 552.231 72.9208C553.479 74.2488 555.115 74.9128 556.75 74.9128C558.385 74.9128 560.02 74.2488 561.269 72.9208L569.093 64.5992C571.591 61.9497 571.591 57.6433 569.093 54.9875Z" fill="white"/>
<path d="M541.06 84.8078C538.563 82.152 534.52 82.152 532.022 84.8078L524.203 93.1231C521.706 95.779 521.706 100.079 524.203 102.735C525.452 104.063 527.087 104.727 528.722 104.727C530.358 104.727 531.993 104.063 533.241 102.735L541.06 94.4195C543.557 91.77 543.557 87.4636 541.06 84.8078Z" fill="white"/>
<path d="M541.06 63.3082L533.241 54.9865C530.744 52.3307 526.701 52.3307 524.203 54.9865C521.706 57.636 521.706 61.9424 524.203 64.5982L532.022 72.9199C533.271 74.2478 534.906 74.9118 536.541 74.9118C538.176 74.9118 539.811 74.2478 541.06 72.9199C543.557 70.2703 543.557 65.964 541.06 63.3082Z" fill="white"/>
<path d="M561.27 84.8078C558.772 82.152 554.729 82.152 552.232 84.8078C549.735 87.4636 549.735 91.77 552.232 94.4195L560.057 102.735C561.305 104.063 562.94 104.727 564.575 104.727C566.211 104.727 567.846 104.063 569.094 102.735C571.592 100.079 571.592 95.7727 569.094 93.1231L561.27 84.8078Z" fill="white"/>
<path d="M176.326 119.22C173.829 116.565 169.786 116.565 167.289 119.22L159.47 127.536C156.973 130.192 156.973 134.492 159.47 137.147C160.718 138.475 162.354 139.139 163.989 139.139C165.624 139.139 167.259 138.475 168.508 137.147L176.326 128.832C178.824 126.176 178.824 121.876 176.326 119.22Z" fill="white"/>
<path d="M139.239 149.039L131.415 157.361C128.917 160.017 128.917 164.317 131.415 166.973C132.663 168.301 134.298 168.965 135.934 168.965C137.569 168.965 139.204 168.301 140.453 166.973L148.277 158.651C150.774 155.995 150.774 151.695 148.277 149.039C145.786 146.383 141.737 146.383 139.239 149.039Z" fill="white"/>
<path d="M148.284 127.541L140.459 119.226C137.962 116.57 133.918 116.57 131.421 119.226C128.924 121.882 128.924 126.188 131.421 128.837L139.24 137.153C140.489 138.481 142.124 139.145 143.759 139.145C145.394 139.145 147.029 138.481 148.278 137.153C150.781 134.497 150.781 130.191 148.284 127.541Z" fill="white"/>
<path d="M168.503 149.039C166.006 146.383 161.963 146.383 159.465 149.039C156.968 151.689 156.968 155.995 159.465 158.651L167.284 166.973C168.533 168.301 170.168 168.965 171.803 168.965C173.438 168.965 175.073 168.301 176.322 166.973C178.819 164.323 178.819 160.017 176.322 157.361L168.503 149.039Z" fill="white"/>
<path d="M536.071 370.007C533.574 367.351 529.53 367.351 527.033 370.007L519.214 378.329C516.717 380.985 516.717 385.291 519.214 387.94C520.463 389.268 522.098 389.932 523.733 389.932C525.368 389.932 527.003 389.268 528.252 387.94L536.071 379.619C538.568 376.963 538.568 372.657 536.071 370.007Z" fill="white"/>
<path d="M498.983 399.825L491.165 408.141C488.667 410.797 488.667 415.097 491.165 417.752C492.413 419.08 494.048 419.744 495.684 419.744C497.319 419.744 498.954 419.08 500.203 417.752L508.021 409.437C510.519 406.781 510.519 402.481 508.021 399.825C505.53 397.17 501.481 397.17 498.983 399.825Z" fill="white"/>
<path d="M508.025 378.327L500.206 370.006C497.709 367.35 493.666 367.35 491.168 370.006C488.671 372.655 488.671 376.961 491.168 379.617L498.987 387.939C500.236 389.267 501.871 389.931 503.506 389.931C505.141 389.931 506.776 389.267 508.025 387.939C510.522 385.289 510.522 380.983 508.025 378.327Z" fill="white"/>
<path d="M528.247 399.825C525.75 397.17 521.707 397.17 519.209 399.825C516.712 402.481 516.712 406.781 519.209 409.437L527.028 417.752C528.277 419.08 529.912 419.744 531.547 419.744C533.182 419.744 534.817 419.08 536.066 417.752C538.563 415.097 538.563 410.797 536.066 408.141L528.247 399.825Z" fill="white"/>
<path d="M297.9 209.567C298.911 209.567 299.934 209.314 300.891 208.776C304.007 207.012 305.196 202.902 303.543 199.582C290.248 172.922 302.193 156.551 302.817 155.735C305.059 152.864 304.708 148.602 302.021 146.193C299.309 143.765 295.284 144.131 293.013 147.008C292.258 147.963 274.7 170.766 292.252 205.956C293.393 208.251 295.611 209.567 297.9 209.567Z" fill="white"/>
<path d="M63.7449 544.758C63.7449 541.002 60.879 537.96 57.3531 537.96H6.39179C2.85996 537.96 0 541.008 0 544.758C0 548.514 2.8659 551.555 6.39179 551.555H57.3531C60.885 551.555 63.7449 548.514 63.7449 544.758Z" fill="white"/>
<path d="M623.586 537.959H542.372L564.58 506.037C566.679 503.021 566.078 498.759 563.242 496.527C560.4 494.301 556.398 494.927 554.3 497.95L537.562 522.01V463.461C537.562 459.705 534.696 456.663 531.17 456.663C527.639 456.663 524.779 459.711 524.779 463.461V525.431L492.713 489.04C490.287 486.295 486.256 486.169 483.675 488.723C481.101 491.291 480.964 495.591 483.378 498.335L518.293 537.959H469.697C468.722 537.959 467.824 538.231 466.998 538.642C458.174 491.589 450.129 445.667 448.096 424.592C449.332 392.487 449.255 371.519 447.703 349.038L515.76 323.005C518.447 321.98 520.172 319.173 519.969 316.137L513.346 214.291C513.215 212.204 512.186 210.308 510.557 209.131C508.94 207.961 506.901 207.658 505.022 208.284L503.601 208.771L493.582 190.167C492.44 188.049 490.329 186.746 488.034 186.746H447.62C445.557 184.786 443.499 182.965 441.424 181.296C445.979 179.879 450.498 177.786 453.994 174.631C459.619 169.547 461.944 162.704 460.713 154.85C460.13 151.138 456.812 148.634 453.358 149.26C449.873 149.874 447.519 153.383 448.102 157.083C448.512 159.707 448.054 161.635 446.627 163.336C441.924 168.901 428.944 170.273 424.924 170.305C420.614 167.991 416.957 166.372 414.466 165.392C411.742 153.567 407.842 142.722 402.901 133.446L408.734 131.644C410.464 131.106 411.903 129.822 412.694 128.103C413.485 126.383 413.556 124.391 412.896 122.607C412.283 120.97 397.359 82.5742 344.584 82.5742C334.339 82.5742 323.208 84.0729 310.972 87.1841C309.461 87.7216 273.751 100.729 260.057 138.967C253.386 157.602 253.19 178.697 259.475 202.151C252.738 203.618 242.637 206.628 233.308 212.546C230.691 203.656 227.284 197.161 226.934 196.51C225.994 194.771 224.377 193.557 222.522 193.203C220.643 192.849 218.752 193.386 217.301 194.67C208.799 202.189 202.918 211.598 198.876 220.369C185.759 222.955 174.996 230.372 168.445 241.572C162.077 252.461 156.524 271.962 166.334 303.308L181.699 346.201C182.305 347.889 183.512 349.248 185.064 349.988C186.616 350.715 188.382 350.772 189.964 350.127L205.774 343.658C206.511 343.583 207.249 343.393 207.974 343.089C212.404 341.211 217.999 334.635 225.704 300.817C226.013 299.926 228.933 292.078 238.446 292.679C238.613 292.698 244.856 292.451 253.168 295.525L215.507 389.429L171.389 406.85L160.116 403.063C160.193 402.373 160.259 401.684 160.128 400.969L125.268 211.536C125.191 211.119 123.359 201.286 117.455 192.211C109.202 179.545 96.7341 174.182 82.4519 177.123C78.9855 177.831 76.7141 181.391 77.3801 185.084C78.0401 188.777 81.3935 191.161 84.866 190.478C106.824 185.976 112.175 211.238 112.717 214.127L146.662 398.559L138.469 395.802C136.316 395.074 133.968 395.612 132.285 397.212C130.602 398.812 129.835 401.233 130.269 403.579L140.205 457.853C140.74 460.788 143.017 463.007 145.818 463.317L156.621 464.525C156.633 464.601 156.603 464.664 156.621 464.74L169.881 537.954H124.525C120.993 537.954 118.133 541.002 118.133 544.751C118.133 548.508 120.999 551.549 124.525 551.549H172.342L201.59 713.058C202.178 716.308 204.86 718.572 207.857 718.572C208.261 718.572 208.665 718.534 209.076 718.446C212.542 717.737 214.813 714.171 214.142 710.484L185.358 551.549H272.304C264.634 611.641 254.853 680.808 247.725 705.032C247.207 706.784 247.386 708.687 248.206 710.306C249.027 711.925 250.43 713.114 252.095 713.613C254.289 714.271 288.804 724.3 345.248 724.3C376.387 724.3 414.209 721.246 456.948 711.868C459.142 711.387 460.938 709.724 461.687 707.479L469.297 684.588L487.604 685.941C489.679 686.143 491.576 685.226 492.884 683.608C494.198 681.989 494.721 679.807 494.293 677.714C494.062 676.601 481.48 615.018 469.434 551.491C469.529 551.497 469.606 551.547 469.707 551.547H623.596C627.128 551.547 629.988 548.5 629.988 544.75C629.982 541.006 627.122 537.958 623.59 537.958L623.586 537.959ZM297.086 452.39C297.128 452.029 297.14 451.663 297.128 451.302C296.272 430.353 295.677 414.424 295.207 402.087C295.118 399.665 295.035 397.553 294.958 395.397C301.456 393.152 320.691 385.684 341.133 370.053C342.251 370.97 343.107 371.823 343.428 372.525C344.475 375.055 346.806 376.578 349.279 376.578C349.981 376.578 350.688 376.458 351.378 376.205C357.699 373.866 368.032 364.962 366.588 347.641C373.877 343.032 388.403 330.992 402.548 302.397C404.195 299.077 402.994 294.967 399.867 293.216C396.751 291.464 392.88 292.735 391.233 296.067C377.712 323.378 364.371 333.383 359.465 336.335L328.784 322.879C325.52 321.45 321.786 323.107 320.436 326.572C319.093 330.05 320.644 334.015 323.909 335.45L353.965 348.634C354.571 355.027 352.591 358.796 350.582 360.934C340.099 351.069 316.542 342.589 303.045 338.308C300.161 328.329 296.463 320.178 292.366 313.273C312.011 313.159 327.84 306.911 338.149 295.156C347.205 284.83 351.979 270.413 352.532 252.315C354.019 252.656 356.207 253.339 358.788 254.123C365.59 256.216 374.056 258.821 379.562 258.821C379.8 258.821 379.984 258.764 380.21 258.752C384.164 260.554 394.831 264.728 409.065 264.728C409.446 264.728 409.88 264.645 410.266 264.639C407.4 279.885 408.994 293.986 409.422 297.122L409.428 316.371C408.661 339.768 415.606 347.546 417.009 348.867C418.204 349.993 419.72 350.581 421.248 350.581C422.289 350.581 423.335 350.309 424.293 349.765L431.648 345.535C425.494 370.355 414.417 394.554 398.255 418.046C397.892 418.71 362.259 482.597 290.516 508.939C294.25 477.86 296.783 455.133 297.086 452.388L297.086 452.39ZM463.319 254.879L434.358 295.096C433.317 296.538 432.865 298.365 433.097 300.161L435.297 317.076V327.965L423.851 334.555C422.858 331.14 421.907 325.474 422.198 316.615V296.614C422.198 296.254 422.169 295.887 422.115 295.527C422.056 295.135 416.449 256.264 437.117 241.183C440.03 239.059 440.767 234.822 438.776 231.73C436.784 228.625 432.8 227.847 429.887 229.966C422.383 235.442 417.495 242.884 414.272 250.808C408.743 251.288 403.635 251.029 399.301 250.327C406.281 244.579 411.567 236.34 414.819 225.729C418.654 213.221 419.379 198.014 417.275 181.371C433.269 189.395 463.164 210.339 463.319 254.881V254.879ZM402.665 221.503C398.622 234.688 390.993 242.655 380.011 245.192L379.553 245.217C375.855 245.217 367.709 242.713 362.329 241.056C359.189 240.088 356.472 239.266 355.283 239.032C355.099 238.976 354.956 238.931 354.795 238.881C355.093 238.324 355.36 237.736 355.503 237.078C355.539 236.92 359.118 220.903 372.668 212.209C381.242 206.707 392.225 205.569 405.108 208.313C404.614 213.031 403.884 217.532 402.665 221.503ZM447.384 334.714C447.741 333.86 448.086 332.981 448.086 332.013V316.609C448.086 316.299 448.068 315.99 448.026 315.68L446.13 301.11L459.466 282.595L465.305 288.513C466.542 289.772 468.129 290.391 469.717 290.391C471.399 290.391 473.088 289.689 474.343 288.286C476.781 285.566 476.685 281.267 474.129 278.674L467.285 271.731L474.771 261.335C475.603 260.184 476.061 258.78 476.091 257.332C476.251 248.523 475.389 240.517 473.813 233.195L500.07 224.248C500.415 224.305 500.719 224.526 501.069 224.526C501.117 224.526 501.159 224.488 501.2 224.488L506.89 311.941L447.384 334.714ZM491.152 213.011L469.967 220.226C467.13 212.695 463.474 206.125 459.371 200.339H484.331L491.152 213.011ZM402.909 172.073C404.49 179.832 405.239 187.268 405.489 194.369C390.243 191.517 376.99 193.56 366.063 200.566C355.265 207.49 349.301 217.646 346.144 224.981L329.008 186.003C327.491 180.242 324.929 165.812 334.817 158.218C334.835 158.205 334.84 158.192 334.858 158.18C334.983 158.085 347.583 148.435 358.487 147.05C358.552 147.044 358.6 147.025 358.665 147.019C359.004 146.975 359.337 146.905 359.664 146.804L390.303 137.338C395.874 146.918 400.203 158.82 402.909 172.073ZM271.951 143.953C283.373 111.835 314.553 100.258 314.465 100.258V100.264C325.197 97.5575 335.322 96.1854 344.58 96.1854C376.015 96.1854 391.155 111.76 397.368 121.005L391.256 122.896H391.244L356.574 133.608C338.386 136.137 329.521 144.547 326.904 147.494C310.767 158.111 312.979 179.263 316.856 190.253C317.379 192.207 317.825 193.466 317.926 193.75L336.114 238.242C336.346 238.811 336.649 239.336 337.012 239.816C338.023 241.138 338.879 242.251 339.67 243.263C340.585 262.195 336.959 276.555 328.789 285.883C318.77 297.303 303.156 299.7 291.811 299.7H291.806C288.179 299.7 284.831 299.434 281.763 299.086C281.371 298.675 280.996 298.207 280.603 297.815C305.766 265.983 288.999 240.38 288.963 240.38C268.427 202.388 262.7 169.948 271.951 143.953ZM238.44 279.111C223.51 278.13 215.673 289.968 213.461 296.95C207.985 320.86 204.251 328.219 202.878 330.301C202.711 330.351 202.551 330.408 202.39 330.471L191.355 334.986L178.363 298.74C172.001 278.404 172.334 260.647 179.29 248.752C182.519 243.225 187.234 239.204 192.936 236.523C191.289 242.429 190.665 246.526 190.599 246.988C190.076 250.7 192.478 254.165 195.968 254.728C199.476 255.284 202.711 252.729 203.246 249.018C203.282 248.771 206.433 227.536 219.378 211.52C223.118 221.707 227.196 238.831 217.16 248.221C214.508 250.7 214.246 254.994 216.583 257.814C217.844 259.344 219.61 260.122 221.387 260.122C222.886 260.122 224.39 259.566 225.603 258.427C235.015 249.625 236.995 237.844 236.062 226.911C245.385 219.601 257.151 216.433 263.591 215.162C267.307 225.614 272.141 236.465 278.271 247.778C278.402 247.967 289.818 265.319 270.459 289.455C268.538 288.172 266.635 287.021 264.762 286.034C264.531 285.889 264.358 285.668 264.108 285.554C263.984 285.497 263.859 285.516 263.734 285.472C249.886 278.509 238.309 279.092 238.44 279.111ZM222.535 401.161C224.182 400.51 225.496 399.169 226.191 397.455L262.099 307.927C262.884 308.799 263.888 309.457 265.024 309.792C265.31 309.874 269.418 311.032 275.614 311.993C281.958 319.714 287.779 330.42 291.709 345.59C292.303 347.872 293.974 349.668 296.115 350.32C308.096 353.968 319.761 358.521 328.567 362.739C314.41 372.692 301.34 378.497 294.39 381.19C294.241 377.598 294.099 374.38 293.962 371.711C293.766 367.961 290.805 365.129 287.225 365.299C283.699 365.508 281 368.714 281.196 372.464C281.547 379.23 281.898 388.582 282.427 402.621C282.582 406.775 282.76 411.518 282.956 416.551L245.676 469.207L203.33 487.039L179.737 418.063L222.535 401.161ZM144.864 412.208L166.626 419.518L178.167 453.254L151.845 450.32L144.864 412.208ZM182.888 537.957L169.854 466.009L183.024 467.476L193.554 498.266C194.143 499.992 195.362 501.39 196.938 502.142C197.77 502.541 198.662 502.743 199.56 502.743C200.357 502.743 201.159 502.585 201.914 502.262L252.045 481.148C253.133 480.687 254.09 479.915 254.798 478.916L283.778 437.984C283.944 442.215 284.123 446.61 284.313 451.34C283.766 456.259 279.61 493.246 274.009 537.959L182.888 537.957ZM467.132 670.8C446.821 656.339 433.425 587.495 429.934 561.733C429.435 558.008 426.171 555.409 422.698 555.972C419.202 556.503 416.776 559.95 417.282 563.668C418.602 573.45 430.469 655.731 457.291 679.874L450.822 699.326C354.172 719.82 282.64 706.889 261.772 702.096C269.21 671.484 278.54 604.429 285.746 547.467C286.084 546.632 286.287 545.728 286.287 544.76C286.287 544.532 286.186 544.343 286.168 544.128C287.036 537.229 287.874 530.513 288.665 524.025C368.964 497.55 407.689 427.819 408.92 425.48C420.271 409.027 429.314 391.916 436.033 374.361C436.33 388.753 436.08 404.385 435.295 424.564C435.289 424.735 435.361 424.88 435.367 425.051C435.373 425.215 435.307 425.354 435.325 425.519C439.66 471.49 471.857 631.707 479.985 671.756L467.132 670.8Z" fill="white"/>
<path d="M618.458 588.984L578.342 646.654L574.37 592.5C574.103 588.75 571.035 585.905 567.503 586.252C563.983 586.543 561.349 589.812 561.628 593.556L565.196 642.184L544.504 612.349C542.405 609.332 538.409 608.688 535.561 610.913C532.725 613.139 532.112 617.395 534.211 620.424L568.157 669.367C568.252 669.506 568.412 669.563 568.519 669.69C568.948 670.214 569.429 670.644 569.988 671.011C570.22 671.163 570.41 671.34 570.66 671.46C571.475 671.859 572.355 672.13 573.3 672.13H573.306H573.312C573.478 672.13 573.645 672.124 573.805 672.111C574.555 672.048 575.238 671.789 575.886 671.485C575.993 671.435 576.112 671.441 576.213 671.384C577.04 670.935 577.724 670.284 578.289 669.525C578.336 669.462 578.408 669.443 578.449 669.38L628.745 597.077C630.844 594.061 630.25 589.799 627.408 587.567C624.56 585.341 620.557 585.968 618.458 588.984Z" fill="white"/>
<path d="M131.567 599.199L100.535 640.13L89.9518 577.958C89.3215 574.265 85.9858 571.793 82.5254 572.482C79.0531 573.152 76.7459 576.687 77.3763 580.38L87.4783 639.695L61.2868 618.037C58.4923 615.722 54.4846 616.266 52.3145 619.232C50.1502 622.198 50.6557 626.466 53.4383 628.774L92.8176 661.333C93.1327 661.593 93.5014 661.732 93.8463 661.921C94.1079 662.067 94.3457 662.263 94.6252 662.364C95.2971 662.617 95.9868 662.743 96.6825 662.75C96.7003 662.75 96.7182 662.756 96.7301 662.756H96.736C97.1166 662.756 97.4911 662.718 97.8776 662.649C98.1928 662.585 98.4365 662.396 98.7338 662.288C99.0965 662.162 99.4414 662.042 99.7803 661.846C100.315 661.536 100.755 661.131 101.178 660.682C101.344 660.505 101.57 660.429 101.719 660.233L141.526 607.728C143.738 604.807 143.31 600.526 140.562 598.167C137.81 595.821 133.797 596.29 131.567 599.199Z" fill="white"/>
</svg>
