<svg width="1580" height="1919" viewBox="0 0 1580 1919" fill="none" xmlns="http://www.w3.org/2000/svg">
<path d="M1164.07 1458.89H912.315C883.835 1458.89 860.73 1486.95 860.73 1521.54C860.73 1556.13 883.834 1584.19 912.315 1584.19H1164.07C1192.55 1584.19 1215.66 1556.13 1215.66 1521.54C1215.66 1486.95 1192.55 1458.89 1164.07 1458.89Z" fill="white"/>
<path d="M1552.14 1103.34H1262.95V405.103C1262.95 386.231 1250.33 370.905 1234.79 370.905H1194.66C1188.4 370.905 1183.3 377.098 1183.3 384.697C1183.3 392.296 1188.4 398.488 1194.66 398.488H1234.79C1237.78 398.488 1240.24 401.444 1240.24 405.102V1103.34H836.155V493.044L905.677 418.288L943.113 661.101C944.411 669.461 946.16 677.567 948.339 685.532C900.45 721.937 868.599 786.518 868.599 860.204C868.599 973.969 944.515 1066.18 1038.18 1066.18C1131.85 1066.18 1207.77 973.969 1207.77 860.204C1207.77 754.123 1141.71 666.841 1056.84 655.583L1041.62 451.271L1097.03 530.952C1108.62 547.586 1123.54 560.66 1140.18 568.737C1148.04 572.564 1156.33 574.408 1164.61 574.408C1178.95 574.408 1193.16 568.779 1204.8 557.971C1217.62 546.065 1220.95 524.477 1212.55 507.771L1093.13 269.966C1074.24 232.336 1049.81 200.067 1020.52 174.059L839.689 13.4012C816.006 -7.63773 783.332 -3.50041 763.704 22.9706L759.452 28.7266L749.684 19.8183C726.395 -1.45986 693.757 -1.57262 670.327 19.5087L421.131 243.872C380.126 280.829 327.787 295.535 277.573 284.219L190.532 264.629V233.5C190.532 215.726 178.621 201.273 163.999 201.273H26.5335C11.8995 201.273 0 215.74 0 233.5V625.687C0 643.461 11.9111 657.914 26.5335 657.914H164.023C178.657 657.914 190.556 643.447 190.556 625.687V593.854L217.194 590.308C245.836 586.48 274.421 593.221 299.853 609.7C319.388 622.352 340.603 628.502 361.586 628.502C388.478 628.502 415.081 618.412 437.467 599.104L522.051 637.169C549.917 649.694 578.987 655.999 608.186 655.999C629.24 655.999 650.363 652.734 671.126 646.106L783.124 610.529C789.195 608.601 792.822 601.072 791.235 593.698C789.647 586.324 783.414 581.919 777.377 583.847L665.379 619.423C620.376 633.722 573.566 630.893 529.966 611.261L456.971 578.401C457.55 577.655 458.176 576.937 458.755 576.149L567.081 431.185L625.479 507.63C639.267 525.671 658.084 534.819 676.937 534.819C693.089 534.819 709.254 528.036 722.355 514.441C735.947 527.839 752.492 534.692 769.141 534.692C784.644 534.692 800.218 528.782 813.427 516.876V1103.25H524.234C508.893 1103.25 496.403 1118.42 496.403 1137.05V1272.21C496.403 1290.84 508.893 1306.01 524.234 1306.01H536.273V1905.21C536.273 1912.81 541.371 1919 547.628 1919C553.884 1919 558.983 1912.81 558.983 1905.21V1306.01H1517.42V1905.21C1517.42 1912.81 1522.52 1919 1528.78 1919C1535.03 1919 1540.13 1912.81 1540.13 1905.21V1306.01H1552.17C1567.51 1306.01 1580 1290.84 1580 1272.21V1137.05C1579.97 1118.45 1567.47 1103.28 1552.13 1103.28L1552.14 1103.34ZM167.878 291.006C101.533 296.41 45.7655 348.577 22.73 420.688V233.518C22.73 230.957 24.4448 228.874 26.5537 228.874H164.043C166.152 228.874 167.867 230.957 167.867 233.518L167.878 291.006ZM1131.18 843.512H1156.65V877.006H1131.34C1130.4 910.063 1107.98 936.619 1080.53 936.619V903.126C1093.38 903.126 1103.82 890.432 1103.82 874.867V848.86C1103.82 823.444 1078.91 805.008 1057.2 827.582C1053.92 831.016 1052.01 835.969 1052.01 841.219V879.919C1052.01 897.412 1044.78 913.764 1032.74 923.349C991.734 956.054 948.386 923.307 945.236 876.965H919.768V843.471H945.073C946.012 810.413 968.432 783.857 995.881 783.857V817.351C983.032 817.351 972.615 830.045 972.615 845.61V871.617C972.615 897.033 997.526 915.469 1019.24 892.895C1022.52 889.461 1024.43 884.508 1024.43 879.258V840.558C1024.43 823.065 1031.66 806.713 1043.7 797.128C1084.71 764.38 1128.05 797.128 1131.17 843.512H1131.18ZM780.635 41.4487C792.442 25.49 812.071 23.0412 826.308 35.6927L1007.14 196.35C1034 220.232 1056.42 249.857 1073.78 284.378L1193.2 522.227C1195.54 526.871 1194.59 532.866 1191.06 536.173C1178.99 547.361 1162.74 550.077 1148.65 543.224C1135.44 536.806 1123.6 526.434 1114.42 513.234L1038.11 403.45L1032.15 323.305C1029.84 292.218 1016.74 263.648 996.205 244.889L777.739 45.3908L780.635 41.4487ZM803.507 491.351C785.211 511.053 758.702 512.235 739.467 495.77L769.221 462.628C793.715 435.355 798.778 390.632 781.294 356.349L701.254 199.435C697.94 192.975 690.965 190.963 685.612 194.988C680.294 199.012 678.637 207.513 681.951 213.986L761.99 370.9C773.739 393.952 770.333 423.982 753.88 442.334L708.98 492.336C689.805 513.699 659.83 512.193 642.149 489.071L582.49 410.965C582.455 410.923 582.42 410.923 582.397 410.88L609.974 373.996L653.215 429.049C655.451 431.891 658.44 433.299 661.418 433.299C664.245 433.299 667.061 432.032 669.274 429.471C673.816 424.236 673.978 415.482 669.668 409.966L591.873 310.975C587.563 305.459 580.356 305.262 575.814 310.497C571.272 315.732 571.11 324.485 575.42 330.002L594.237 353.954L441.953 557.757C408.503 602.524 354.485 613.908 310.595 585.453C281.106 566.342 247.981 558.616 214.76 562.992L190.59 566.187V292.679L273.551 311.354C329.933 324.047 388.687 307.526 434.758 266.039L683.954 41.6754C699.365 27.7993 720.812 27.884 736.154 41.8724L982.591 266.914C998.001 280.986 1007.83 302.462 1009.59 325.781L1038.59 715.699C1039.4 726.732 1032.72 736.667 1023.67 737.849C1008.97 739.82 994.63 731.784 986.286 716.965C975.904 698.53 968.894 678.038 965.523 656.044L924.088 387.111C926.289 379.976 927.587 372.377 927.888 364.496C928.63 344.358 922.767 325.177 911.342 310.514L769.336 128.071C765.026 122.512 757.853 122.273 753.277 127.522C748.735 132.757 748.503 141.468 752.825 147.027L894.831 329.47C901.969 338.646 905.665 350.664 905.178 363.273C904.726 375.883 900.184 387.465 892.398 395.824L803.507 491.351ZM1557.28 1272.34C1557.28 1275.77 1554.97 1278.56 1552.16 1278.56H524.25C521.422 1278.56 519.128 1275.76 519.128 1272.34V1137.18C519.128 1133.75 521.434 1130.96 524.25 1130.96H1552.13C1554.95 1130.96 1557.25 1133.76 1557.25 1137.18L1557.28 1272.34Z" fill="white"/>
</svg>
