<svg width="200" height="29" viewBox="0 0 200 29" fill="none" xmlns="http://www.w3.org/2000/svg">
<path d="M5.03075 12.456C4.77475 12.456 4.55075 12.4133 4.35875 12.328C3.78275 12.1573 3.19608 11.7947 2.59875 11.24C2.00142 10.664 1.47875 9.98133 1.03075 9.192C0.604083 8.38133 0.348083 7.58133 0.26275 6.792C0.241417 6.70667 0.23075 6.6 0.23075 6.472C0.23075 6.344 0.23075 6.19467 0.23075 6.024C0.23075 3.272 1.95875 1.896 5.41475 1.896C7.12142 1.896 8.99875 2.16267 11.0468 2.696C13.0948 3.22933 15.4734 3.944 18.1828 4.84C18.8654 5.07467 19.4414 5.26667 19.9108 5.416C20.3801 5.56533 20.7214 5.672 20.9348 5.736C21.6601 5.94933 22.3321 6.056 22.9508 6.056C23.6334 6.056 24.1348 5.928 24.4548 5.672C24.7748 5.39467 24.9241 5.096 24.9028 4.776V4.648C24.9028 4.392 24.9774 4.264 25.1268 4.264C25.2974 4.264 25.4788 4.392 25.6708 4.648C25.7561 4.75467 25.7988 4.904 25.7988 5.096C25.7988 5.544 25.5534 5.96 25.0628 6.344C24.5721 6.728 23.8254 6.92 22.8228 6.92C21.9054 6.92 20.8921 6.77067 19.7828 6.472C18.6734 6.17333 17.2334 5.736 15.4628 5.16C13.4788 4.52 11.8468 4.04 10.5668 3.72C9.28675 3.37867 8.09208 3.208 6.98275 3.208C4.38008 3.208 2.72675 4.34933 2.02275 6.632C1.95875 6.84533 1.92675 7.09067 1.92675 7.368C1.92675 7.90133 2.06542 8.50933 2.34275 9.192C2.64142 9.85333 3.00408 10.4507 3.43075 10.984C3.85742 11.496 4.27342 11.7947 4.67875 11.88H4.90275C5.41475 11.88 5.67075 11.976 5.67075 12.168C5.67075 12.232 5.61742 12.296 5.51075 12.36C5.38275 12.424 5.22275 12.456 5.03075 12.456ZM7.07875 23.976C6.07608 23.7627 5.57475 23.2187 5.57475 22.344C5.57475 21.9173 5.68142 21.352 5.89475 20.648C6.10808 20.0293 6.30008 19.4853 6.47075 19.016C6.66275 18.5253 6.84408 18.1093 7.01475 17.768C7.18542 17.4267 7.38808 17.0427 7.62275 16.616C7.87875 16.1893 8.17742 15.7093 8.51875 15.176L6.91875 16.104C6.64142 16.2533 6.39608 16.3813 6.18275 16.488C5.96942 16.5947 5.77742 16.6693 5.60675 16.712C5.58542 16.712 5.56408 16.7227 5.54275 16.744C5.54275 16.744 5.53208 16.744 5.51075 16.744C5.40408 16.744 5.35075 16.6587 5.35075 16.488C5.35075 16.2533 5.42542 15.9653 5.57475 15.624C5.74542 15.2827 5.90542 15.0587 6.05475 14.952C6.33208 14.8027 6.58808 14.6747 6.82275 14.568C7.05742 14.4613 7.26008 14.3867 7.43075 14.344C7.49475 14.3227 7.56942 14.3013 7.65475 14.28C7.74008 14.2373 7.83608 14.2053 7.94275 14.184C8.13475 14.12 8.39075 14.024 8.71075 13.896C9.03075 13.7467 9.28675 13.6613 9.47875 13.64C9.47875 13.64 9.55342 13.5333 9.70275 13.32C9.85208 13.0853 10.0761 12.744 10.3748 12.296C11.2708 10.9093 11.8254 10.024 12.0388 9.64C12.5508 8.72267 13.0094 8.008 13.4148 7.496C13.6494 7.176 13.9801 7.016 14.4068 7.016C14.7054 7.016 14.9828 7.09067 15.2388 7.24C15.4948 7.38933 15.6228 7.54933 15.6228 7.72C15.6228 7.82667 15.5801 7.912 15.4948 7.976C14.8974 8.488 14.1828 9.21333 13.3508 10.152C12.5401 11.0693 11.7401 12.0507 10.9508 13.096C12.6574 12.648 14.2574 12.424 15.7508 12.424C16.0921 12.424 16.3374 12.456 16.4868 12.52C16.6574 12.6267 16.7428 12.7227 16.7428 12.808C16.7428 12.872 16.6788 12.9573 16.5508 13.064C16.4868 13.1067 16.4014 13.1387 16.2948 13.16C16.2094 13.1813 16.1134 13.2027 16.0068 13.224C15.1961 13.2667 14.4814 13.3413 13.8628 13.448C13.2441 13.5547 12.6361 13.704 12.0388 13.896C11.4628 14.0667 10.8121 14.3013 10.0868 14.6C9.63875 15.24 9.26542 15.784 8.96675 16.232C8.66808 16.6587 8.42275 17.064 8.23075 17.448C8.03875 17.8107 7.85742 18.216 7.68675 18.664C7.51608 19.0907 7.33475 19.624 7.14275 20.264C6.92942 20.904 6.82275 21.416 6.82275 21.8C6.82275 22.3973 7.08942 22.76 7.62275 22.888C7.81475 22.9093 7.91075 23.016 7.91075 23.208C7.91075 23.4 7.81475 23.5813 7.62275 23.752C7.45208 23.944 7.27075 24.0187 7.07875 23.976ZM33.3698 23.784C32.3244 23.784 31.8018 22.952 31.8018 21.288C31.8018 20.648 31.8764 19.9227 32.0258 19.112C32.1751 18.28 32.3564 17.448 32.5698 16.616C32.8044 15.7627 33.0498 14.9733 33.3058 14.248C33.5618 13.5227 33.7964 12.936 34.0098 12.488C33.6044 12.9787 33.1138 13.544 32.5378 14.184C31.9618 14.8027 31.3004 15.5067 30.5538 16.296C29.5511 17.3413 28.5271 18.3333 27.4818 19.272C26.4578 20.2107 25.4978 20.968 24.6018 21.544C23.7271 22.1413 23.0124 22.44 22.4578 22.44C21.7751 22.44 21.2631 22.2267 20.9218 21.8C20.5804 21.3947 20.4098 20.8293 20.4098 20.104C20.4098 19.656 20.4951 19.0907 20.6658 18.408C20.8791 17.576 21.1778 16.7653 21.5618 15.976C21.9671 15.1653 22.4684 14.3013 23.0658 13.384C23.6844 12.4453 24.4204 11.3787 25.2738 10.184C26.3618 8.69067 27.1404 7.56 27.6098 6.792C27.6311 6.74933 27.7378 6.568 27.9298 6.248C28.1431 5.928 28.3778 5.53333 28.6338 5.064C28.8898 4.57333 29.1138 4.08267 29.3058 3.592C29.4978 3.10133 29.5938 2.67467 29.5938 2.312C29.5938 1.94933 29.4338 1.768 29.1138 1.768C28.0258 1.768 26.7351 2.25867 25.2418 3.24C24.2178 3.88 23.2151 4.63733 22.2338 5.512C21.2524 6.38667 20.3671 7.28267 19.5778 8.2C18.8098 9.096 18.2018 9.928 17.7538 10.696C17.3911 11.3787 17.2098 11.9653 17.2098 12.456C17.2098 13.2667 17.6684 13.672 18.5858 13.672C18.9698 13.672 19.1618 13.7787 19.1618 13.992C19.1618 14.0773 19.1191 14.1307 19.0338 14.152C18.9058 14.1947 18.7671 14.216 18.6178 14.216C17.7431 14.216 17.0071 14.0027 16.4098 13.576C15.8124 13.1493 15.5138 12.6053 15.5138 11.944C15.5138 11.5813 15.6311 11.1867 15.8658 10.76C16.2284 10.1413 16.7084 9.46933 17.3058 8.744C17.9031 8.01867 18.6284 7.26133 19.4818 6.472C20.6124 5.40533 21.7858 4.44533 23.0017 3.592C24.2178 2.71733 25.3804 2.024 26.4898 1.512C27.6204 0.999999 28.5804 0.743999 29.3698 0.743999C30.0098 0.743999 30.4898 0.850666 30.8098 1.064C31.1298 1.256 31.2898 1.59733 31.2898 2.088C31.2898 2.62133 31.1511 3.208 30.8738 3.848C30.5964 4.46667 30.2018 5.192 29.6898 6.024C29.4764 6.36533 29.1351 6.84533 28.6658 7.464C28.2178 8.08267 27.6524 8.85067 26.9698 9.768C25.5831 11.56 24.4844 13.0853 23.6738 14.344C22.8631 15.5813 22.2978 16.808 21.9778 18.024C21.8071 18.664 21.7218 19.208 21.7218 19.656C21.7218 20.5947 22.0844 21.064 22.8098 21.064C23.5564 21.064 24.4951 20.6373 25.6258 19.784C26.7778 18.9093 28.0791 17.736 29.5298 16.264C30.9804 14.792 32.5164 13.16 34.1378 11.368C34.5004 10.9627 34.7884 10.6427 35.0018 10.408C35.2364 10.152 35.3964 9.98133 35.4818 9.896L36.2498 8.392C36.7618 7.368 37.2204 6.49333 37.6258 5.768C38.0311 5.02133 38.4258 4.328 38.8098 3.688C39.2151 3.048 39.6524 2.376 40.1218 1.672C40.2924 1.43733 40.4844 1.32 40.6978 1.32C41.0178 1.32 41.3058 1.50133 41.5618 1.864C41.8391 2.22667 41.9351 2.536 41.8498 2.792C41.7431 3.19733 41.5831 3.64533 41.3698 4.136C41.1564 4.62667 40.8044 5.11733 40.3138 5.608L40.2818 5.64C39.9191 6.00267 39.4498 6.568 38.8738 7.336C38.2978 8.08267 37.5724 8.97867 36.6978 10.024C36.2284 10.92 35.7804 11.848 35.3538 12.808C34.9271 13.768 34.5751 14.6853 34.2978 15.56C34.0204 16.4133 33.8391 17.16 33.7538 17.8C33.7324 17.8853 33.7004 18.0347 33.6578 18.248C33.6364 18.4613 33.6044 18.7387 33.5618 19.08C33.5191 19.4213 33.4764 19.752 33.4338 20.072C33.4124 20.3707 33.4018 20.6693 33.4018 20.968C33.4018 21.9067 33.6044 22.376 34.0098 22.376C34.3084 22.376 34.6284 22.312 34.9698 22.184C35.3111 22.056 35.5884 21.9067 35.8018 21.736C35.9724 21.6293 36.1004 21.576 36.1858 21.576C36.2924 21.5333 36.3458 21.5547 36.3458 21.64C36.3671 21.6613 36.3778 21.6933 36.3778 21.736C36.3778 21.8853 36.2818 22.0453 36.0898 22.216C35.6631 22.5787 35.1938 22.9307 34.6818 23.272C34.1698 23.6133 33.7324 23.784 33.3698 23.784ZM34.903 25.32C34.7537 25.32 34.615 25.288 34.487 25.224C34.1883 25.032 34.039 24.7653 34.039 24.424C34.039 24.2747 34.071 24.136 34.135 24.008C34.263 23.752 34.551 23.432 34.999 23.048C35.447 22.664 35.927 22.3227 36.439 22.024C36.6523 21.7467 36.823 21.4907 36.951 21.256C37.079 21.0213 37.175 20.8187 37.239 20.648C37.7297 19.752 38.231 18.92 38.743 18.152C39.255 17.384 39.767 16.6693 40.279 16.008C39.767 15.6453 39.511 15.1333 39.511 14.472C39.511 13.9173 39.6497 13.352 39.927 12.776C40.0977 12.4133 40.247 12.1893 40.375 12.104C40.5243 12.0187 40.6203 11.9973 40.663 12.04C40.7057 12.04 40.727 12.1253 40.727 12.296C40.727 12.4453 40.6737 12.648 40.567 12.904C40.4817 13.0533 40.439 13.256 40.439 13.512C40.439 14.0453 40.6843 14.4933 41.175 14.856C41.5163 14.4507 41.8257 14.0453 42.103 13.64C42.9563 12.5307 43.767 11.5067 44.535 10.568C45.303 9.608 46.0497 8.72267 46.775 7.912C47.7137 6.84533 48.7377 5.832 49.847 4.872C50.9563 3.912 52.087 3.13333 53.239 2.536C54.391 1.93867 55.5003 1.64 56.567 1.64C57.335 1.64 57.943 1.78933 58.391 2.088C58.8603 2.38667 59.095 2.824 59.095 3.4C59.095 3.86933 58.9137 4.43467 58.551 5.096C58.167 5.75733 57.6443 6.48267 56.983 7.272C56.343 8.06133 55.5537 8.91467 54.615 9.832C53.3777 11.0693 52.055 12.2107 50.647 13.256C49.2603 14.28 47.8843 15.112 46.519 15.752C45.175 16.3707 43.9377 16.68 42.807 16.68C42.1243 16.68 41.559 16.5733 41.111 16.36C40.5777 17.0427 40.0763 17.736 39.607 18.44C39.1377 19.1227 38.7003 19.8053 38.295 20.488C38.2737 20.6373 38.1243 20.936 37.847 21.384C38.871 20.8293 40.1083 20.3707 41.559 20.008C43.0097 19.6453 44.5243 19.368 46.103 19.176C47.703 18.984 49.1963 18.8987 50.583 18.92C51.4577 18.92 52.119 19.1333 52.567 19.56C53.0363 19.9653 53.271 20.4453 53.271 21C53.271 21.064 53.2603 21.1387 53.239 21.224C53.239 21.3093 53.2283 21.4053 53.207 21.512C53.1857 21.8533 53.1003 22.152 52.951 22.408C52.823 22.6853 52.6737 22.824 52.503 22.824C52.2683 22.824 52.119 22.504 52.055 21.864C51.9057 21.3093 51.703 20.8933 51.447 20.616C51.191 20.3387 50.7003 20.2 49.975 20.2C44.8977 20.2427 40.6203 21.2027 37.143 23.08C36.9723 23.4213 36.8017 23.72 36.631 23.976C36.4603 24.232 36.3003 24.4453 36.151 24.616C35.7457 25.0853 35.3297 25.32 34.903 25.32ZM43.383 15.432C45.0043 15.432 46.775 14.856 48.695 13.704C49.975 12.936 51.191 12.0507 52.343 11.048C53.5163 10.024 54.5617 8.968 55.479 7.88C56.4177 6.792 57.1537 5.77867 57.687 4.84C58.0283 4.24267 58.199 3.76267 58.199 3.4C58.199 2.93067 57.8897 2.696 57.271 2.696C57.0577 2.696 56.8017 2.728 56.503 2.792C55.1377 3.06933 53.5163 3.95467 51.639 5.448C50.4017 6.42933 49.1857 7.496 47.991 8.648C46.8177 9.77867 45.7083 10.92 44.663 12.072C43.639 13.2027 42.7323 14.2587 41.943 15.24C42.4337 15.368 42.9137 15.432 43.383 15.432ZM52.9967 25.32C52.8474 25.32 52.7087 25.288 52.5807 25.224C52.2821 25.032 52.1327 24.7653 52.1327 24.424C52.1327 24.2747 52.1647 24.136 52.2287 24.008C52.3567 23.752 52.6447 23.432 53.0927 23.048C53.5407 22.664 54.0207 22.3227 54.5328 22.024C54.7461 21.7467 54.9168 21.4907 55.0448 21.256C55.1728 21.0213 55.2688 20.8187 55.3328 20.648C55.8234 19.752 56.3248 18.92 56.8368 18.152C57.3488 17.384 57.8608 16.6693 58.3728 16.008C57.8608 15.6453 57.6048 15.1333 57.6048 14.472C57.6048 13.9173 57.7434 13.352 58.0208 12.776C58.1914 12.4133 58.3408 12.1893 58.4688 12.104C58.6181 12.0187 58.7141 11.9973 58.7568 12.04C58.7994 12.04 58.8208 12.1253 58.8208 12.296C58.8208 12.4453 58.7674 12.648 58.6608 12.904C58.5754 13.0533 58.5328 13.256 58.5328 13.512C58.5328 14.0453 58.7781 14.4933 59.2688 14.856C59.6101 14.4507 59.9194 14.0453 60.1968 13.64C61.0501 12.5307 61.8608 11.5067 62.6288 10.568C63.3968 9.608 64.1434 8.72267 64.8688 7.912C65.8074 6.84533 66.8314 5.832 67.9408 4.872C69.0501 3.912 70.1808 3.13333 71.3328 2.536C72.4848 1.93867 73.5941 1.64 74.6608 1.64C75.4288 1.64 76.0368 1.78933 76.4848 2.088C76.9541 2.38667 77.1888 2.824 77.1888 3.4C77.1888 3.86933 77.0074 4.43467 76.6448 5.096C76.2608 5.75733 75.7381 6.48267 75.0768 7.272C74.4368 8.06133 73.6474 8.91467 72.7088 9.832C71.4714 11.0693 70.1488 12.2107 68.7408 13.256C67.3541 14.28 65.9781 15.112 64.6128 15.752C63.2688 16.3707 62.0314 16.68 60.9008 16.68C60.2181 16.68 59.6528 16.5733 59.2048 16.36C58.6714 17.0427 58.1701 17.736 57.7008 18.44C57.2314 19.1227 56.7941 19.8053 56.3888 20.488C56.3674 20.6373 56.2181 20.936 55.9408 21.384C56.9648 20.8293 58.2021 20.3707 59.6528 20.008C61.1034 19.6453 62.6181 19.368 64.1968 19.176C65.7968 18.984 67.2901 18.8987 68.6768 18.92C69.5514 18.92 70.2128 19.1333 70.6608 19.56C71.1301 19.9653 71.3647 20.4453 71.3647 21C71.3647 21.064 71.3541 21.1387 71.3328 21.224C71.3328 21.3093 71.3221 21.4053 71.3008 21.512C71.2794 21.8533 71.1941 22.152 71.0448 22.408C70.9168 22.6853 70.7674 22.824 70.5968 22.824C70.3621 22.824 70.2128 22.504 70.1488 21.864C69.9994 21.3093 69.7968 20.8933 69.5408 20.616C69.2848 20.3387 68.7941 20.2 68.0688 20.2C62.9914 20.2427 58.7141 21.2027 55.2368 23.08C55.0661 23.4213 54.8954 23.72 54.7248 23.976C54.5541 24.232 54.3941 24.4453 54.2447 24.616C53.8394 25.0853 53.4234 25.32 52.9967 25.32ZM61.4768 15.432C63.0981 15.432 64.8688 14.856 66.7888 13.704C68.0688 12.936 69.2848 12.0507 70.4368 11.048C71.6101 10.024 72.6554 8.968 73.5728 7.88C74.5114 6.792 75.2474 5.77867 75.7808 4.84C76.1221 4.24267 76.2928 3.76267 76.2928 3.4C76.2928 2.93067 75.9834 2.696 75.3648 2.696C75.1514 2.696 74.8954 2.728 74.5968 2.792C73.2314 3.06933 71.6101 3.95467 69.7328 5.448C68.4954 6.42933 67.2794 7.496 66.0848 8.648C64.9114 9.77867 63.8021 10.92 62.7568 12.072C61.7328 13.2027 60.8261 14.2587 60.0368 15.24C60.5274 15.368 61.0074 15.432 61.4768 15.432ZM81.5483 28.488C81.1003 28.488 80.8763 28.232 80.8763 27.72C80.8763 27.2933 81.0043 26.792 81.2603 26.216C81.4736 25.7467 81.7083 25.2773 81.9643 24.808C82.2203 24.36 82.5083 23.912 82.8283 23.464C83.8949 22.0133 84.9403 20.7013 85.9643 19.528C86.9883 18.3547 88.0763 17.2453 89.2283 16.2C90.3803 15.1333 91.6603 14.088 93.0683 13.064C93.3669 12.3813 93.6229 11.752 93.8363 11.176C94.0709 10.6 94.2416 10.0667 94.3483 9.576C94.2629 9.66133 93.9856 9.93867 93.5163 10.408C93.0469 10.856 92.3856 11.4853 91.5323 12.296L89.5483 14.152C88.6523 15.0053 87.8949 15.7093 87.2763 16.264C86.6576 16.7973 86.0176 17.3093 85.3563 17.8C83.8416 18.9307 82.6043 19.496 81.6443 19.496C81.4096 19.496 81.2603 19.4853 81.1963 19.464C80.4496 19.2933 80.0763 18.7493 80.0763 17.832C80.0763 17.128 80.2896 16.2533 80.7163 15.208C81.1429 14.1627 81.7189 13.064 82.4443 11.912C83.1909 10.7387 83.9589 9.672 84.7483 8.712C85.5589 7.73067 86.4123 6.792 87.3083 5.896C88.2256 5 89.1429 4.2 90.0603 3.496C90.9776 2.77067 91.8203 2.22667 92.5883 1.864C93.3563 1.50133 94.1776 1.32 95.0522 1.32C95.2229 1.32 95.4043 1.33067 95.5963 1.352C95.7883 1.37333 95.9909 1.40533 96.2043 1.448C96.6736 1.55467 97.0683 1.8 97.3883 2.184C97.7083 2.54667 97.8683 2.99467 97.8683 3.528C97.8683 4.06133 97.6869 4.62667 97.3243 5.224C97.1536 5.48 96.9296 5.71467 96.6523 5.928C96.3749 6.12 96.1296 6.23733 95.9163 6.28H95.8203C95.6283 6.28 95.5323 6.20533 95.5323 6.056V5.992C95.5323 5.75733 95.6496 5.46933 95.8843 5.128C96.3536 4.40267 96.5883 3.74133 96.5883 3.144C96.5883 2.54667 96.3003 2.248 95.7243 2.248C95.1909 2.248 94.3803 2.55733 93.2923 3.176C92.5243 3.60267 91.7029 4.14667 90.8283 4.808C89.9749 5.448 89.1216 6.14133 88.2683 6.888C87.4363 7.63467 86.6683 8.392 85.9643 9.16C85.2603 9.928 84.5776 10.792 83.9163 11.752C83.2763 12.712 82.7536 13.64 82.3483 14.536C81.9003 15.5173 81.6763 16.3067 81.6763 16.904C81.6763 17.48 81.8789 17.8107 82.2843 17.896C82.3909 17.9173 82.4869 17.9387 82.5723 17.96C82.6576 17.96 82.7216 17.96 82.7643 17.96C83.4683 17.96 84.2043 17.704 84.9723 17.192C85.7403 16.68 86.5616 16.04 87.4363 15.272C88.3749 14.3973 89.2603 13.544 90.0923 12.712C90.9456 11.8587 91.7243 11.016 92.4283 10.184L93.8363 8.52L94.4123 7.848C94.5403 7.69867 94.7323 7.624 94.9883 7.624C95.2443 7.624 95.4683 7.69867 95.6603 7.848C95.8736 7.976 95.9696 8.136 95.9483 8.328C95.8629 8.75467 95.7243 9.27733 95.5323 9.896C95.3616 10.4933 95.1269 11.176 94.8283 11.944C95.2549 11.7093 95.6283 11.5067 95.9483 11.336C96.2896 11.144 96.5776 10.9947 96.8123 10.888C96.9829 10.824 97.1003 10.8027 97.1643 10.824C97.2283 10.824 97.2603 10.856 97.2603 10.92C97.2603 10.984 97.2069 11.08 97.1003 11.208C96.9936 11.3147 96.8443 11.4107 96.6523 11.496C96.4176 11.624 96.1083 11.816 95.7243 12.072C95.3616 12.328 94.9136 12.6373 94.3803 13C93.7403 14.472 92.9509 16.008 92.0123 17.608C91.0949 19.1867 90.0709 20.712 88.9403 22.184C87.8309 23.6773 86.6576 25.0213 85.4203 26.216C85.0576 26.5573 84.6309 26.8987 84.1403 27.24C83.6709 27.6027 83.2016 27.9013 82.7323 28.136C82.2843 28.3707 81.8896 28.488 81.5483 28.488ZM83.3083 26.536C83.6709 26.536 83.9909 26.4187 84.2683 26.184C84.5669 25.9493 84.7909 25.7573 84.9403 25.608C86.1776 24.4133 87.4469 22.824 88.7483 20.84C90.0496 18.856 91.2656 16.7333 92.3963 14.472C91.3723 15.304 90.4763 16.0613 89.7083 16.744C88.9403 17.4267 88.2363 18.1093 87.5963 18.792C86.9776 19.4533 86.3589 20.168 85.7403 20.936C85.1429 21.704 84.4923 22.5787 83.7883 23.56C83.3403 24.1573 83.0203 24.7973 82.8283 25.48C82.8069 25.544 82.7856 25.6187 82.7643 25.704C82.7643 25.7893 82.7643 25.8853 82.7643 25.992C82.7643 26.3547 82.9456 26.536 83.3083 26.536ZM100.376 23.336C99.5435 23.336 98.8395 23.0267 98.2635 22.408C97.7088 21.7893 97.4315 21.064 97.4315 20.232C97.4315 19.976 97.4848 19.656 97.5915 19.272C95.9915 18.632 95.1915 17.5013 95.1915 15.88C95.1915 14.984 95.4368 13.9813 95.9275 12.872C96.4395 11.7627 97.1435 10.6427 98.0395 9.512C99.1488 8.104 100.408 6.83467 101.816 5.704C103.245 4.552 104.696 3.64533 106.168 2.984C107.661 2.30133 109.058 1.96 110.36 1.96C111.64 1.96 112.685 2.39733 113.496 3.272C114.306 4.14667 114.712 5.23467 114.712 6.536C114.712 7.13333 114.637 7.66667 114.488 8.136C114.082 9.62933 113.464 11.1013 112.632 12.552C111.821 13.9813 110.861 15.336 109.752 16.616C108.664 17.896 107.501 19.08 106.264 20.168H106.296C105.272 21.064 104.216 21.8107 103.128 22.408C102.04 23.0267 101.122 23.336 100.376 23.336ZM100.6 22.376C101.218 22.376 101.976 22.12 102.872 21.608C103.789 21.096 104.696 20.4453 105.592 19.656C108.984 16.6693 111.341 12.9147 112.664 8.392C112.962 7.38933 113.112 6.472 113.112 5.64C113.112 4.744 112.92 4.02933 112.536 3.496C112.173 2.94133 111.597 2.664 110.808 2.664H110.776C108.813 2.664 106.818 3.29333 104.792 4.552C103.448 5.40533 102.21 6.41867 101.08 7.592C99.9702 8.744 99.0315 9.97067 98.2635 11.272C97.5168 12.552 97.0048 13.8107 96.7275 15.048C96.6635 15.3253 96.6315 15.6027 96.6315 15.88C96.6315 16.904 97.0475 17.704 97.8795 18.28C98.1142 17.5333 98.4128 16.7547 98.7755 15.944C99.1382 15.112 99.5862 14.2693 100.12 13.416C100.802 12.264 101.528 11.1867 102.296 10.184C103.064 9.18133 103.81 8.31733 104.536 7.592C105.261 6.84533 105.89 6.32267 106.424 6.024C106.53 5.96 106.669 5.90667 106.84 5.864C107.032 5.8 107.202 5.768 107.352 5.768C107.714 5.768 107.81 5.90667 107.64 6.184C107.554 6.376 107.277 6.67467 106.808 7.08C105.741 7.95467 104.653 9.02133 103.544 10.28C102.456 11.5387 101.474 12.8827 100.6 14.312C99.7462 15.72 99.1275 17.128 98.7435 18.536L99.2235 18.6C99.6288 18.6 100.141 18.5147 100.76 18.344C101.4 18.1733 101.901 17.992 102.264 17.8C102.392 17.736 102.488 17.704 102.552 17.704C102.658 17.704 102.712 17.7573 102.712 17.864C102.712 18.0347 102.541 18.216 102.2 18.408C101.858 18.5787 101.453 18.7387 100.984 18.888C100.514 19.0373 100.077 19.1547 99.6715 19.24C99.2875 19.304 99.0422 19.3253 98.9355 19.304L98.5835 19.24C98.5622 19.304 98.5515 19.4533 98.5515 19.688C98.5515 20.4347 98.7328 21.064 99.0955 21.576C99.4795 22.1093 99.9808 22.376 100.6 22.376ZM114.715 23.048C114.182 23.048 113.776 22.9307 113.499 22.696C113.243 22.4613 113.115 22.1413 113.115 21.736C113.115 21.352 113.232 20.936 113.467 20.488C113.702 20.04 114.032 19.624 114.459 19.24C114.587 19.1333 114.694 19.0693 114.779 19.048C114.843 19.048 114.896 19.0693 114.939 19.112C114.96 19.1333 114.971 19.176 114.971 19.24C114.971 19.3893 114.875 19.56 114.683 19.752C114.086 20.3707 113.787 20.8933 113.787 21.32C113.787 21.5547 113.894 21.768 114.107 21.96C114.32 22.152 114.566 22.2373 114.843 22.216C115.91 22.1733 117.008 21.9387 118.139 21.512C119.27 21.0853 120.326 20.4987 121.307 19.752C122.288 18.984 123.099 18.1093 123.739 17.128C124.208 16.4453 124.443 15.848 124.443 15.336C124.443 14.6747 124.016 14.344 123.163 14.344C123.014 14.344 122.843 14.3653 122.651 14.408C122.459 14.4293 122.246 14.4613 122.011 14.504L120.411 14.856C119.11 15.1333 117.958 15.3787 116.955 15.592C115.952 15.784 115.056 15.88 114.267 15.88C113.35 15.88 112.635 15.7413 112.123 15.464C111.632 15.1653 111.387 14.664 111.387 13.96C111.387 13.64 111.451 13.256 111.579 12.808C112.006 11.4 113.147 9.90667 115.003 8.328C116.262 7.26133 117.67 6.312 119.227 5.48C120.784 4.62667 122.352 3.95467 123.931 3.464C125.531 2.952 127.024 2.696 128.411 2.696C129.478 2.696 130.32 2.93067 130.939 3.4C131.579 3.86933 131.899 4.50933 131.899 5.32C131.899 6.06667 131.632 6.86667 131.099 7.72C130.95 7.93333 130.822 8.04 130.715 8.04C130.672 8.04 130.63 8.008 130.587 7.944C130.544 7.85867 130.523 7.77333 130.523 7.688C130.523 7.66667 130.523 7.63467 130.523 7.592C130.544 7.528 130.566 7.45333 130.587 7.368C130.758 6.856 130.843 6.36533 130.843 5.896C130.843 5.17067 130.587 4.62667 130.075 4.264C129.584 3.90133 128.87 3.76267 127.931 3.848C126.288 4.01867 124.411 4.54133 122.299 5.416C120.87 6.01333 119.515 6.71733 118.235 7.528C116.976 8.33867 115.888 9.20267 114.971 10.12C114.075 11.016 113.456 11.9227 113.115 12.84C113.03 13.0107 112.987 13.2133 112.987 13.448C112.987 14.3013 113.83 14.728 115.515 14.728C116.326 14.728 117.211 14.6427 118.171 14.472C119.152 14.3013 120.283 14.088 121.563 13.832L122.683 13.608C123.067 13.544 123.44 13.512 123.803 13.512C124.486 13.512 125.03 13.6507 125.435 13.928C125.84 14.2053 126.043 14.5893 126.043 15.08C126.043 15.528 125.851 16.0613 125.467 16.68C125.104 17.256 124.678 17.8107 124.187 18.344C123.696 18.856 123.152 19.3573 122.555 19.848C121.339 20.8293 120.038 21.608 118.651 22.184C117.264 22.76 115.952 23.048 114.715 23.048ZM130.061 23.176C129.08 23.176 128.322 22.856 127.789 22.216C127.277 21.5973 127.021 20.776 127.021 19.752C127.021 18.9413 127.16 18.152 127.437 17.384C127.48 17.2347 127.522 17.0533 127.565 16.84C127.629 16.6053 127.693 16.3387 127.757 16.04C127.842 15.528 128.066 14.9307 128.429 14.248C128.173 14.504 127.906 14.7173 127.629 14.888C127.373 15.0373 127.202 15.112 127.117 15.112C126.925 15.112 126.754 15.048 126.605 14.92C126.456 14.7707 126.392 14.568 126.413 14.312C126.52 13.5653 126.786 13.0747 127.213 12.84C127.661 12.584 128.248 12.3493 128.973 12.136C129.016 12.1147 129.09 12.0933 129.197 12.072C129.304 12.0507 129.442 12.0293 129.613 12.008C129.784 11.9653 129.922 11.9227 130.029 11.88C130.157 11.8373 130.242 11.8053 130.285 11.784C131.629 9.45867 133.165 7.528 134.893 5.992C136.621 4.41333 138.434 3.24 140.333 2.472C142.253 1.68266 144.152 1.288 146.029 1.288C146.69 1.288 147.288 1.448 147.821 1.768C148.376 2.088 148.653 2.51467 148.653 3.048C148.653 3.24 148.632 3.4 148.589 3.528C148.333 4.31733 148.088 4.92533 147.853 5.352C147.64 5.75733 147.341 6.152 146.957 6.536C146.722 6.77067 146.456 6.888 146.157 6.888C145.901 6.888 145.773 6.76 145.773 6.504C145.773 6.312 145.848 6.07733 145.997 5.8C146.04 5.75733 146.104 5.704 146.189 5.64C146.274 5.55467 146.37 5.46933 146.477 5.384C146.882 5.04267 147.192 4.73333 147.405 4.456C147.64 4.17867 147.832 3.82667 147.981 3.4C148.13 2.952 147.96 2.64267 147.469 2.472C146.978 2.30133 146.402 2.216 145.741 2.216C144.162 2.216 142.53 2.6 140.845 3.368C139.181 4.136 137.538 5.224 135.917 6.632C134.317 8.04 132.834 9.704 131.469 11.624C131.938 11.3893 132.386 11.1867 132.813 11.016C133.261 10.824 133.698 10.6533 134.125 10.504C134.253 10.4613 134.445 10.3973 134.701 10.312C134.978 10.2267 135.32 10.1413 135.725 10.056L136.685 9.832C137.73 9.59733 138.701 9.416 139.597 9.288C140.514 9.13867 141.346 9.064 142.093 9.064C143.458 9.064 144.44 9.26667 145.037 9.672C145.229 9.8 145.229 9.91733 145.037 10.024C144.909 10.0667 144.813 10.088 144.749 10.088C144.642 10.088 144.525 10.056 144.397 9.992C143.992 9.736 143.405 9.608 142.637 9.608C141.357 9.608 139.352 9.992 136.621 10.76C136.045 10.9093 135.373 11.1547 134.605 11.496C133.858 11.816 133.112 12.168 132.365 12.552C131.64 12.936 131 13.2987 130.445 13.64C130.018 14.344 129.688 14.952 129.453 15.464C129.218 15.976 128.984 16.616 128.749 17.384C128.493 18.152 128.365 18.8667 128.365 19.528C128.365 20.36 128.557 21.0213 128.941 21.512C129.346 22.0027 129.933 22.248 130.701 22.248C131.874 22.248 133.261 22.0027 134.861 21.512C136.44 21 137.944 20.3493 139.373 19.56C140.824 18.7493 141.954 17.9387 142.765 17.128C143.021 16.872 143.224 16.7973 143.373 16.904L143.405 17C143.405 17.1067 143.32 17.2453 143.149 17.416C142.296 18.2693 141.069 19.1547 139.469 20.072C138.424 20.6693 137.336 21.2027 136.205 21.672C135.074 22.1413 133.976 22.504 132.909 22.76C131.864 23.0373 130.914 23.176 130.061 23.176ZM150.28 15.464C150.088 15.464 149.992 15.3467 149.992 15.112C149.992 14.8773 150.066 14.6427 150.216 14.408C150.386 14.1733 150.568 14.056 150.76 14.056C150.866 14.0347 150.984 14.024 151.112 14.024C151.261 14.024 151.442 14.0133 151.656 13.992C151.848 13.992 152.018 13.992 152.168 13.992C152.317 13.992 152.434 13.9813 152.52 13.96H152.552C152.68 13.96 152.754 14.056 152.776 14.248C152.861 14.3333 152.936 14.376 153 14.376C155.133 13.9707 157.266 13.192 159.4 12.04C160.744 11.2933 161.757 10.4933 162.44 9.64C163.122 8.78667 163.464 7.944 163.464 7.112C163.464 6.04533 162.909 5.14933 161.8 4.424C160.69 3.69867 159.144 3.28267 157.16 3.176C157.032 3.15467 156.872 3.144 156.68 3.144C156.509 3.144 156.306 3.144 156.072 3.144C153.981 3.144 151.986 3.47467 150.088 4.136C148.21 4.776 146.493 5.71467 144.936 6.952C143.4 8.168 142.088 9.64 141 11.368C140.914 11.496 140.829 11.56 140.744 11.56C140.637 11.56 140.584 11.4427 140.584 11.208C140.584 10.8027 140.722 10.3973 141 9.992C142.066 8.34933 143.442 6.984 145.128 5.896C146.813 4.78667 148.669 3.95467 150.696 3.4C152.744 2.824 154.834 2.536 156.968 2.536C158.653 2.536 160.157 2.71733 161.48 3.08C162.738 3.44267 163.698 3.944 164.36 4.584C165.042 5.224 165.384 5.94933 165.384 6.76C165.384 7.61333 164.989 8.50933 164.2 9.448C163.41 10.3867 162.226 11.2933 160.648 12.168C159.816 12.616 158.909 13.0427 157.928 13.448C156.968 13.832 156.008 14.184 155.048 14.504C154.088 14.8027 153.192 15.0373 152.36 15.208C151.549 15.3787 150.866 15.464 150.312 15.464H150.28ZM146.44 23.048C145.245 23.048 144.648 22.472 144.648 21.32C144.648 21.0427 144.68 20.744 144.744 20.424C145.042 18.632 145.704 16.84 146.728 15.048C147.773 13.256 149.032 11.368 150.504 9.384L151.496 7.976C151.538 7.93333 151.56 7.86933 151.56 7.784C151.56 7.74133 151.549 7.688 151.528 7.624C151.528 7.56 151.528 7.51733 151.528 7.496C151.528 7.21867 151.773 6.952 152.264 6.696C152.52 6.26933 152.85 5.94933 153.256 5.736C153.661 5.52267 154.045 5.416 154.408 5.416C154.962 5.416 155.24 5.59733 155.24 5.96C155.24 6.19467 155.133 6.41867 154.92 6.632C154.834 6.71733 154.717 6.84533 154.568 7.016C154.418 7.16533 154.226 7.35733 153.992 7.592C153.266 8.33867 152.584 9.07467 151.944 9.8C151.325 10.504 150.738 11.1973 150.184 11.88V11.848C147.752 14.92 146.248 17.7787 145.672 20.424C145.65 20.5307 145.629 20.6267 145.608 20.712C145.608 20.7973 145.608 20.8613 145.608 20.904C145.608 21.3093 145.682 21.6507 145.832 21.928C145.981 22.2267 146.152 22.3867 146.344 22.408C146.514 22.4293 146.653 22.472 146.76 22.536C146.866 22.6 146.941 22.6747 146.984 22.76V22.824C146.984 22.9733 146.802 23.048 146.44 23.048ZM164.905 23.176C163.923 23.176 163.166 22.856 162.633 22.216C162.121 21.5973 161.865 20.776 161.865 19.752C161.865 18.9413 162.003 18.152 162.281 17.384C162.323 17.2347 162.366 17.0533 162.409 16.84C162.473 16.6053 162.537 16.3387 162.601 16.04C162.686 15.528 162.91 14.9307 163.273 14.248C163.017 14.504 162.75 14.7173 162.473 14.888C162.217 15.0373 162.046 15.112 161.961 15.112C161.769 15.112 161.598 15.048 161.449 14.92C161.299 14.7707 161.235 14.568 161.257 14.312C161.363 13.5653 161.63 13.0747 162.057 12.84C162.505 12.584 163.091 12.3493 163.817 12.136C163.859 12.1147 163.934 12.0933 164.041 12.072C164.147 12.0507 164.286 12.0293 164.457 12.008C164.627 11.9653 164.766 11.9227 164.873 11.88C165.001 11.8373 165.086 11.8053 165.129 11.784C166.473 9.45867 168.009 7.528 169.737 5.992C171.465 4.41333 173.278 3.24 175.177 2.472C177.097 1.68266 178.995 1.288 180.873 1.288C181.534 1.288 182.131 1.448 182.665 1.768C183.219 2.088 183.497 2.51467 183.497 3.048C183.497 3.24 183.475 3.4 183.433 3.528C183.177 4.31733 182.931 4.92533 182.697 5.352C182.483 5.75733 182.185 6.152 181.801 6.536C181.566 6.77067 181.299 6.888 181.001 6.888C180.745 6.888 180.617 6.76 180.617 6.504C180.617 6.312 180.691 6.07733 180.841 5.8C180.883 5.75733 180.947 5.704 181.033 5.64C181.118 5.55467 181.214 5.46933 181.321 5.384C181.726 5.04267 182.035 4.73333 182.249 4.456C182.483 4.17867 182.675 3.82667 182.825 3.4C182.974 2.952 182.803 2.64267 182.313 2.472C181.822 2.30133 181.246 2.216 180.585 2.216C179.006 2.216 177.374 2.6 175.689 3.368C174.025 4.136 172.382 5.224 170.761 6.632C169.161 8.04 167.678 9.704 166.313 11.624C166.782 11.3893 167.23 11.1867 167.657 11.016C168.105 10.824 168.542 10.6533 168.969 10.504C169.097 10.4613 169.289 10.3973 169.545 10.312C169.822 10.2267 170.163 10.1413 170.569 10.056L171.529 9.832C172.574 9.59733 173.545 9.416 174.441 9.288C175.358 9.13867 176.19 9.064 176.937 9.064C178.302 9.064 179.283 9.26667 179.881 9.672C180.073 9.8 180.073 9.91733 179.881 10.024C179.753 10.0667 179.657 10.088 179.593 10.088C179.486 10.088 179.369 10.056 179.241 9.992C178.835 9.736 178.249 9.608 177.481 9.608C176.201 9.608 174.195 9.992 171.465 10.76C170.889 10.9093 170.217 11.1547 169.449 11.496C168.702 11.816 167.955 12.168 167.209 12.552C166.483 12.936 165.843 13.2987 165.289 13.64C164.862 14.344 164.531 14.952 164.297 15.464C164.062 15.976 163.827 16.616 163.593 17.384C163.337 18.152 163.209 18.8667 163.209 19.528C163.209 20.36 163.401 21.0213 163.785 21.512C164.19 22.0027 164.777 22.248 165.545 22.248C166.718 22.248 168.105 22.0027 169.705 21.512C171.283 21 172.787 20.3493 174.217 19.56C175.667 18.7493 176.798 17.9387 177.609 17.128C177.865 16.872 178.067 16.7973 178.217 16.904L178.249 17C178.249 17.1067 178.163 17.2453 177.993 17.416C177.139 18.2693 175.913 19.1547 174.313 20.072C173.267 20.6693 172.179 21.2027 171.049 21.672C169.918 22.1413 168.819 22.504 167.753 22.76C166.707 23.0373 165.758 23.176 164.905 23.176ZM175.715 25.32C175.566 25.32 175.427 25.288 175.299 25.224C175.001 25.032 174.851 24.7653 174.851 24.424C174.851 24.2747 174.883 24.136 174.947 24.008C175.075 23.752 175.363 23.432 175.811 23.048C176.259 22.664 176.739 22.3227 177.252 22.024C177.465 21.7467 177.636 21.4907 177.764 21.256C177.892 21.0213 177.988 20.8187 178.052 20.648C178.542 19.752 179.044 18.92 179.556 18.152C180.068 17.384 180.58 16.6693 181.092 16.008C180.58 15.6453 180.324 15.1333 180.324 14.472C180.324 13.9173 180.462 13.352 180.74 12.776C180.91 12.4133 181.06 12.1893 181.188 12.104C181.337 12.0187 181.433 11.9973 181.476 12.04C181.518 12.04 181.54 12.1253 181.54 12.296C181.54 12.4453 181.486 12.648 181.38 12.904C181.294 13.0533 181.252 13.256 181.252 13.512C181.252 14.0453 181.497 14.4933 181.988 14.856C182.329 14.4507 182.638 14.0453 182.916 13.64C183.769 12.5307 184.58 11.5067 185.348 10.568C186.116 9.608 186.862 8.72267 187.588 7.912C188.526 6.84533 189.55 5.832 190.66 4.872C191.769 3.912 192.9 3.13333 194.052 2.536C195.204 1.93867 196.313 1.64 197.38 1.64C198.148 1.64 198.756 1.78933 199.204 2.088C199.673 2.38667 199.908 2.824 199.908 3.4C199.908 3.86933 199.726 4.43467 199.364 5.096C198.98 5.75733 198.457 6.48267 197.796 7.272C197.156 8.06133 196.366 8.91467 195.428 9.832C194.19 11.0693 192.868 12.2107 191.46 13.256C190.073 14.28 188.697 15.112 187.332 15.752C185.988 16.3707 184.75 16.68 183.62 16.68C182.937 16.68 182.372 16.5733 181.924 16.36C181.39 17.0427 180.889 17.736 180.42 18.44C179.95 19.1227 179.513 19.8053 179.108 20.488C179.086 20.6373 178.937 20.936 178.66 21.384C179.684 20.8293 180.921 20.3707 182.372 20.008C183.822 19.6453 185.337 19.368 186.916 19.176C188.516 18.984 190.009 18.8987 191.396 18.92C192.27 18.92 192.932 19.1333 193.38 19.56C193.849 19.9653 194.083 20.4453 194.083 21C194.083 21.064 194.073 21.1387 194.052 21.224C194.052 21.3093 194.041 21.4053 194.02 21.512C193.998 21.8533 193.913 22.152 193.764 22.408C193.636 22.6853 193.486 22.824 193.316 22.824C193.081 22.824 192.932 22.504 192.868 21.864C192.718 21.3093 192.516 20.8933 192.26 20.616C192.004 20.3387 191.513 20.2 190.788 20.2C185.71 20.2427 181.433 21.2027 177.956 23.08C177.785 23.4213 177.614 23.72 177.444 23.976C177.273 24.232 177.113 24.4453 176.963 24.616C176.558 25.0853 176.142 25.32 175.715 25.32ZM184.196 15.432C185.817 15.432 187.588 14.856 189.508 13.704C190.788 12.936 192.004 12.0507 193.156 11.048C194.329 10.024 195.374 8.968 196.292 7.88C197.23 6.792 197.966 5.77867 198.5 4.84C198.841 4.24267 199.012 3.76267 199.012 3.4C199.012 2.93067 198.702 2.696 198.084 2.696C197.87 2.696 197.614 2.728 197.316 2.792C195.95 3.06933 194.329 3.95467 192.452 5.448C191.214 6.42933 189.998 7.496 188.804 8.648C187.63 9.77867 186.521 10.92 185.476 12.072C184.452 13.2027 183.545 14.2587 182.756 15.24C183.246 15.368 183.726 15.432 184.196 15.432Z" fill="white"/>
</svg>
